# xmcd
#
# Track frame offsets:
#       150
#       16695
#       32075
#       43905
#       55107
#       64723
#       80652
#       98048
#       112401
#       125424
#       133917
#       149263
#       161168
#
# Disc length: 2339 seconds
#
# Revision: 2
# Processed by: cddbd v1.5.1PL0 Copyright (c) Steve Scherf et al.
# Submitted via: MusiCat 1.1
#
DISCID=ba09210d
DTITLE=Amy Allison - No Frills Friend
DYEAR=2003
DGENRE=Alt Country
TTITLE0=What's The Deal? 
TTITLE1=No Frills Friend 
TTITLE2=Baby, You're The One 
TTITLE3=Hell To Pay 
TTITLE4=Pretty Things To Buy
TTITLE5=Don't String Me Along 
TTITLE6=Say It Isn't So
TTITLE7=Dreaming's Killing Me 
TTITLE8=Thank God For The Wine 
TTITLE9=Beautiful Night 
TTITLE10=Completely Yours
TTITLE11=Hanging On A Moment
TTITLE12=Moonlight On The Mountains 
EXTD=Spit and Polish\nSpit 018\n
EXTT0=
EXTT1=
EXTT2=
EXTT3=
EXTT4=
EXTT5=
EXTT6=
EXTT7=
EXTT8=
EXTT9=
EXTT10=
EXTT11=
EXTT12=
PLAYORDER=
